<?xml version="1.0" encoding="utf-8"?>
<!-- Generator: Adobe Illustrator 18.1.0, SVG Export Plug-In . SVG Version: 6.00 Build 0)  -->
<!DOCTYPE svg PUBLIC "-//W3C//DTD SVG 1.0//EN" "http://www.w3.org/TR/2001/REC-SVG-20010904/DTD/svg10.dtd">
<svg version="1.0" xmlns="http://www.w3.org/2000/svg" xmlns:xlink="http://www.w3.org/1999/xlink" x="0px" y="0px"
	 viewBox="0 0 2313.9 496.1" enable-background="new 0 0 2313.9 496.1" xml:space="preserve">
<g id="construction">
	<rect x="0" display="none" fill="#F27E2D" width="2313.9" height="496.1"/>
	<g>
		<path fill="#A2A3A9" d="M668.3,393c-5.1,0-9.9-0.9-14.3-2.8c-4.4-1.8-8.2-4.5-11.5-8c-3.2-3.5-5.8-7.9-7.7-13
			c-1.9-5.2-2.8-11.1-2.8-17.7c0-6.6,1-12.5,3-17.7c2-5.2,4.7-9.5,8.1-13c3.4-3.5,7.3-6.2,11.7-8c4.4-1.8,9.1-2.7,13.9-2.7
			c3,0,5.7,0.2,8.1,0.6c2.4,0.4,4.6,0.9,6.4,1.4c1.8,0.6,3.4,1.1,4.7,1.7c1.3,0.6,2.3,1.1,3,1.6l-2.5,6.8c-1.9-1.1-4.3-2.3-7.3-3.4
			c-2.9-1.1-6.6-1.7-10.9-1.7c-5,0-9.3,0.8-13,2.5c-3.7,1.7-6.8,4.1-9.3,7.1c-2.5,3.1-4.4,6.7-5.7,10.9c-1.3,4.2-1.9,8.9-1.9,14
			c0,5.3,0.6,10,1.9,14.3c1.3,4.2,3.1,7.8,5.6,10.8c2.4,3,5.4,5.3,9,6.9c3.6,1.6,7.6,2.4,12.2,2.4c5,0,9.3-0.5,12.7-1.4
			s6-1.9,7.7-2.9l2.2,6.6c-0.5,0.4-1.5,0.8-2.8,1.3c-1.3,0.5-2.9,1-4.9,1.5c-2,0.5-4.3,1-6.9,1.3C674.4,392.8,671.5,393,668.3,393z"
			/>
		<path fill="#A2A3A9" d="M844.1,351.5c0,6.8-1,12.8-3,18c-2,5.2-4.7,9.5-8.1,13c-3.4,3.5-7.4,6.1-11.9,7.9
			c-4.5,1.8-9.3,2.6-14.3,2.6c-5,0-9.8-0.9-14.3-2.6c-4.5-1.8-8.5-4.4-11.9-7.9c-3.4-3.5-6.1-7.8-8.1-13c-2-5.2-3-11.2-3-18
			s1-12.8,3-17.9c2-5.2,4.7-9.5,8.1-13c3.4-3.5,7.4-6.1,11.9-7.9c4.5-1.8,9.3-2.6,14.3-2.6c5,0,9.8,0.9,14.3,2.6
			c4.5,1.8,8.5,4.4,11.9,7.9c3.4,3.5,6.1,7.8,8.1,13C843.1,338.7,844.1,344.7,844.1,351.5z M835.9,351.5c0-5.3-0.7-10.1-2.1-14.4
			c-1.4-4.2-3.3-7.8-5.8-10.8c-2.5-3-5.6-5.3-9.1-6.8c-3.6-1.6-7.5-2.4-12-2.4c-4.4,0-8.4,0.8-12,2.4c-3.6,1.6-6.6,3.8-9.1,6.8
			c-2.5,3-4.5,6.6-5.8,10.8c-1.4,4.2-2.1,9-2.1,14.4c0,5.4,0.7,10.1,2.1,14.4c1.4,4.2,3.3,7.8,5.8,10.8c2.5,3,5.6,5.3,9.1,6.9
			c3.6,1.6,7.5,2.4,12,2.4c4.4,0,8.4-0.8,12-2.4c3.6-1.6,6.6-3.9,9.1-6.9c2.5-3,4.5-6.6,5.8-10.8
			C835.2,361.7,835.9,356.9,835.9,351.5z"/>
		<path fill="#A2A3A9" d="M984.4,391.3c-1.5-2.7-3.3-5.8-5.5-9.4c-2.2-3.6-4.7-7.4-7.4-11.5c-2.7-4.1-5.6-8.3-8.5-12.6
			c-3-4.3-5.9-8.5-8.8-12.6c-2.9-4.1-5.8-7.9-8.6-11.5c-2.8-3.6-5.3-6.7-7.5-9.3v66.9h-7.7v-79.4h6.2c3.9,4.3,8.1,9.4,12.5,15.1
			c4.5,5.7,8.8,11.5,13.1,17.4c4.3,5.9,8.3,11.7,12,17.4c3.7,5.7,6.8,10.6,9.1,14.8v-64.6h7.7v79.4H984.4z"/>
		<path fill="#A2A3A9" d="M1097.4,386.2c6.2,0,11-1.1,14.4-3.4c3.4-2.3,5.2-5.9,5.2-11c0-2.9-0.6-5.3-1.7-7.3
			c-1.1-1.9-2.6-3.6-4.4-4.9c-1.8-1.3-3.9-2.5-6.3-3.4c-2.4-1-4.9-2-7.4-3c-3.3-1.3-6.2-2.6-8.8-4c-2.6-1.4-4.8-2.9-6.6-4.6
			c-1.8-1.7-3.2-3.7-4.2-5.9c-1-2.2-1.4-4.8-1.4-7.8c0-6.8,2.3-12,6.8-15.5s10.8-5.3,18.8-5.3c2.1,0,4.2,0.2,6.3,0.5
			c2.1,0.3,4,0.7,5.8,1.2c1.8,0.5,3.4,1.1,4.9,1.7c1.5,0.6,2.7,1.3,3.7,1.9l-2.8,6.5c-2.2-1.5-4.9-2.7-8.1-3.7
			c-3.2-0.9-6.6-1.4-10.3-1.4c-2.5,0-4.8,0.2-6.9,0.7c-2.1,0.5-3.9,1.3-5.4,2.4c-1.5,1.1-2.7,2.5-3.6,4.2c-0.9,1.7-1.3,3.7-1.3,6.1
			c0,2.4,0.5,4.5,1.4,6.2c0.9,1.7,2.2,3.1,3.8,4.4c1.6,1.2,3.6,2.3,5.8,3.3c2.2,1,4.6,2,7.2,3.1c3.1,1.3,6.1,2.6,8.9,3.9
			c2.8,1.3,5.2,2.8,7.3,4.6c2.1,1.8,3.7,3.9,4.9,6.4c1.2,2.5,1.8,5.6,1.8,9.3c0,7.2-2.5,12.6-7.5,16.2c-5,3.6-11.8,5.4-20.3,5.4
			c-3.1,0-5.8-0.2-8.4-0.6c-2.5-0.4-4.8-0.9-6.8-1.4c-2-0.6-3.7-1.2-5-1.8c-1.4-0.6-2.4-1.1-3.2-1.6l2.5-6.8c0.8,0.5,1.8,1,3.1,1.6
			c1.3,0.6,2.8,1.2,4.6,1.8c1.8,0.6,3.7,1.1,6,1.4C1092.3,386.1,1094.7,386.2,1097.4,386.2z"/>
		<path fill="#A2A3A9" d="M1258.8,311.9v6.8h-25.4v72.7h-7.8v-72.7h-25.4v-6.8H1258.8z"/>
		<path fill="#A2A3A9" d="M1392.9,335.7c0,6-1.6,10.7-4.7,14.1c-3.1,3.4-7.3,5.9-12.4,7.5c1.2,1.5,2.8,3.6,4.8,6.2
			c1.9,2.6,4,5.4,6,8.5c2.1,3.1,4.1,6.3,6.1,9.7c2,3.4,3.7,6.6,5,9.6h-8.4c-1.6-3.1-3.3-6.1-5.2-9.2c-1.9-3.1-3.8-6-5.7-8.9
			c-1.9-2.9-3.8-5.5-5.7-8c-1.8-2.4-3.4-4.6-4.8-6.4c-2.4,0.2-4.9,0.3-7.3,0.3h-12.8v32.1h-7.8v-77.9c2.7-0.8,6-1.3,9.7-1.7
			c3.7-0.3,7.1-0.5,10.3-0.5c10.9,0,19.2,2.1,24.7,6.2C1390.1,321.5,1392.9,327.6,1392.9,335.7z M1360.8,317.9
			c-2.9,0-5.4,0.1-7.6,0.3c-2.2,0.2-4,0.4-5.4,0.5v33.8h10.8c3.6,0,7-0.2,10.2-0.5c3.2-0.3,6-1.1,8.4-2.3c2.4-1.2,4.2-2.9,5.6-5.1
			c1.4-2.2,2.1-5.2,2.1-9.1c0-3.5-0.7-6.4-2.1-8.7c-1.4-2.3-3.2-4.1-5.4-5.4c-2.2-1.3-4.8-2.3-7.6-2.7
			C1366.8,318.2,1363.9,317.9,1360.8,317.9z"/>
		<path fill="#A2A3A9" d="M1508.2,393c-5.3,0-9.8-0.8-13.5-2.4c-3.7-1.6-6.7-3.8-9-6.6c-2.3-2.8-4-6.1-5-9.9
			c-1-3.8-1.5-7.9-1.5-12.2v-50h7.8v48.9c0,4.4,0.5,8.1,1.5,11.3c1,3.2,2.5,5.8,4.3,7.9c1.8,2.1,4,3.6,6.6,4.6
			c2.6,1,5.5,1.5,8.7,1.5c3.2,0,6.1-0.5,8.7-1.5c2.6-1,4.8-2.5,6.6-4.6c1.8-2.1,3.3-4.7,4.3-7.9c1-3.2,1.5-6.9,1.5-11.3v-48.9h7.8
			v50c0,4.4-0.5,8.4-1.5,12.2c-1,3.8-2.7,7.1-5,9.9c-2.3,2.8-5.3,5-9,6.6C1518,392.2,1513.5,393,1508.2,393z"/>
		<path fill="#A2A3A9" d="M1659.3,393c-5.1,0-9.9-0.9-14.3-2.8s-8.2-4.5-11.5-8c-3.2-3.5-5.8-7.9-7.7-13c-1.9-5.2-2.8-11.1-2.8-17.7
			c0-6.6,1-12.5,3-17.7c2-5.2,4.7-9.5,8.1-13c3.4-3.5,7.3-6.2,11.7-8c4.4-1.8,9.1-2.7,13.9-2.7c3,0,5.7,0.2,8.1,0.6
			c2.4,0.4,4.6,0.9,6.4,1.4c1.8,0.6,3.4,1.1,4.7,1.7s2.3,1.1,3,1.6l-2.5,6.8c-1.9-1.1-4.3-2.3-7.3-3.4c-2.9-1.1-6.6-1.7-10.9-1.7
			c-5,0-9.3,0.8-13,2.5c-3.7,1.7-6.8,4.1-9.3,7.1c-2.5,3.1-4.4,6.7-5.7,10.9s-1.9,8.9-1.9,14c0,5.3,0.6,10,1.9,14.3
			c1.3,4.2,3.1,7.8,5.6,10.8s5.4,5.3,9,6.9c3.6,1.6,7.6,2.4,12.2,2.4c5,0,9.3-0.5,12.7-1.4c3.4-1,6-1.9,7.7-2.9l2.2,6.6
			c-0.5,0.4-1.5,0.8-2.8,1.3c-1.3,0.5-2.9,1-4.9,1.5c-2,0.5-4.3,1-6.9,1.3C1665.4,392.8,1662.5,393,1659.3,393z"/>
		<path fill="#A2A3A9" d="M1817.2,311.9v6.8h-25.4v72.7h-7.8v-72.7h-25.4v-6.8H1817.2z"/>
		<path fill="#A2A3A9" d="M1898.4,311.9h7.8v79.4h-7.8V311.9z"/>
		<path fill="#A2A3A9" d="M2066.8,351.5c0,6.8-1,12.8-3,18c-2,5.2-4.7,9.5-8.1,13c-3.4,3.5-7.4,6.1-11.9,7.9
			c-4.5,1.8-9.3,2.6-14.3,2.6c-5,0-9.8-0.9-14.3-2.6c-4.5-1.8-8.5-4.4-11.9-7.9c-3.4-3.5-6.1-7.8-8.1-13c-2-5.2-3-11.2-3-18
			s1-12.8,3-17.9c2-5.2,4.7-9.5,8.1-13c3.4-3.5,7.4-6.1,11.9-7.9c4.5-1.8,9.3-2.6,14.3-2.6c5,0,9.8,0.9,14.3,2.6
			c4.5,1.8,8.5,4.4,11.9,7.9c3.4,3.5,6.1,7.8,8.1,13C2065.9,338.7,2066.8,344.7,2066.8,351.5z M2058.6,351.5
			c0-5.3-0.7-10.1-2.1-14.4c-1.4-4.2-3.3-7.8-5.8-10.8c-2.5-3-5.6-5.3-9.1-6.8c-3.6-1.6-7.5-2.4-12-2.4c-4.4,0-8.4,0.8-12,2.4
			c-3.6,1.6-6.6,3.8-9.1,6.8c-2.5,3-4.5,6.6-5.8,10.8c-1.4,4.2-2.1,9-2.1,14.4c0,5.4,0.7,10.1,2.1,14.4c1.4,4.2,3.3,7.8,5.8,10.8
			c2.5,3,5.6,5.3,9.1,6.9c3.6,1.6,7.5,2.4,12,2.4c4.4,0,8.4-0.8,12-2.4c3.6-1.6,6.6-3.9,9.1-6.9c2.5-3,4.5-6.6,5.8-10.8
			C2057.9,361.7,2058.6,356.9,2058.6,351.5z"/>
		<path fill="#A2A3A9" d="M2207.1,391.3c-1.5-2.7-3.3-5.8-5.5-9.4c-2.2-3.6-4.7-7.4-7.4-11.5c-2.7-4.1-5.6-8.3-8.5-12.6
			c-3-4.3-5.9-8.5-8.8-12.6c-2.9-4.1-5.8-7.9-8.6-11.5c-2.8-3.6-5.3-6.7-7.5-9.3v66.9h-7.7v-79.4h6.2c3.9,4.3,8.1,9.4,12.5,15.1
			c4.5,5.7,8.8,11.5,13.1,17.4c4.3,5.9,8.3,11.7,12,17.4c3.7,5.7,6.8,10.6,9.1,14.8v-64.6h7.7v79.4H2207.1z"/>
	</g>
</g>
<g id="keystone">
	<g>
		<path fill="#304A70" d="M701.3,253.5c-2.4-4.8-5.2-9.9-8.4-15.5c-3.2-5.5-6.7-11.1-10.4-16.8c-3.7-5.6-7.6-11-11.7-16.2
			c-4.1-5.2-8.1-9.7-12.2-13.7v62.1h-26.4V106.8h26.4v55.1c6.8-8.9,13.7-18.2,20.7-28c7-9.7,13.5-18.8,19.4-27.1h31.3
			c-8,11.9-16,23.3-24.1,34.3c-8.1,11-16.6,22-25.5,33.1c9.4,9.8,18.4,21.4,27.2,34.8c8.7,13.4,17.1,28.2,25.2,44.4H701.3z"/>
		<path fill="#304A70" d="M847.4,253.5V106.8h79.2v27.7h-52.8v28.8h46.9v27.1h-46.9v35.3h56.7v27.7H847.4z"/>
		<path fill="#304A70" d="M1096.1,167c4.7-10,9.3-20,13.6-30c4.3-10,8.2-20.1,11.9-30.2h29.1c-6.4,15.8-13.1,31.1-20,45.9
			c-6.9,14.8-14.2,29.7-21.8,44.7v56.1h-26.4v-55.7c-7.7-15-15-29.9-21.9-44.9c-6.9-15-13.6-30.3-20.1-46.1h30.6
			c3.6,10.1,7.5,20.2,11.7,30.2C1086.9,147,1091.4,157,1096.1,167z"/>
		<path fill="#304A70" d="M1551,106.8V135h-35.4v118.5h-26.4V135h-35.4v-28.1H1551z"/>
		<path fill="#304A70" d="M1977.8,253.5c-7.6-16.8-15.7-33.4-24.6-49.7c-8.8-16.4-18.2-31.8-28.1-46.4v96.1H1899V106.8h21.5
			c3.7,4.7,7.8,10.4,12.4,17.1c4.5,6.8,9.1,14,13.8,21.7s9.3,15.7,14,23.9c4.6,8.3,9,16.2,13,23.8v-86.6h26.2v146.7H1977.8z"/>
		<path fill="#304A70" d="M2130.5,253.5V106.8h79.2v27.7h-52.8v28.8h46.9v27.1h-46.9v35.3h56.7v27.7H2130.5z"/>
		<path fill="#304A70" d="M1343.7,155v-11.5c0-0.4-0.1-8.9-5.3-18.6c-7.1-12.7-20.7-19.7-38.3-19.7c-17.7,0-31.3,7-38.3,19.7
			c-5.2,9.7-5.3,18.2-5.3,18.6v9c0,0.3,1.1,25.7,39.2,37.8c18.7,6,20.3,16.1,20.3,16.1v8.8c0,0.2-0.4,15.5-15.9,15.5
			c-15.5,0-16.2-15.4-16.2-15.5v-11.5h-27.5v11.5c0,0.4,0.1,8.9,5.3,18.6c7.1,12.7,20.7,19.7,38.3,19.7c17.7,0,31.3-7,38.3-19.7
			c5.2-9.7,5.3-18.2,5.3-18.6v-9c0-1-0.4-25.8-39.3-37.6c-18.9-5.7-20.5-16-20.5-16v-9c0-0.2,0.7-15.3,16.2-15.3
			c15.5,0,15.9,15.2,15.9,15.3V155H1343.7z"/>
		<path fill="#304A70" d="M1771.4,124.5c-8.2-12.6-24.1-19.6-44.6-19.6s-36.3,7-44.6,19.6c-6.2,9.7-6.3,18.4-6.3,18.8v71.8
			c0,0.4,0.1,9,6.3,18.8c8.2,12.6,24.1,19.6,44.6,19.6s36.3-7,44.6-19.6c6.2-9.8,6.3-18.4,6.3-18.8v-71.8
			C1777.7,143,1777.7,134.3,1771.4,124.5z M1746,215.1c0,0.2-0.5,15.5-19.1,15.5c-18.5,0-19.4-15.4-19.4-15.5v-71.8
			c0-0.2,0.8-15.3,19.4-15.3c18.6,0,19.1,15.2,19.1,15.3V215.1z"/>
	</g>
</g>
<g id="Layer_3">
	<path fill="#304A70" d="M283.7,136c11.4,0,22.5,2.2,33.2,6.1c0,0,0,0,0,0c0,0,0,0,0,0c10.8-4,21.9-6.1,33.2-6.1
		c37.1,0,71.7,23.4,100.5,57.1c-36.2-51.3-82.8-90-133.7-90c-50.9,0-97.6,38.4-133.7,89.7C212,159.1,246.6,136,283.7,136z"/>
	<path fill="#B2B2B2" d="M139.3,390c2.5-56.2,34.2-141.8,81.5-196.9c0,0,0-0.3,0-0.4c0.2-0.3,0.5-0.7,0.7-1c0.1-0.2,0.3-0.4,0.4-0.6
		c0,0,0,0,0,0c23.6-27.3,51-47.2,80.5-53.3c1.2,0.2,2.4,0.5,3.6,0.8c-7.3-1.8-14.8-2.8-22.3-2.8c-36.7,0-70.8,22.2-99.4,55.2
		c0,0,0,0,0-0.1c-0.1,0.2-0.3,0.3-0.4,0.5c-0.2,0.3-0.5,0.6-0.7,0.9c0,0-0.1,0.1-0.1,0.1c-47.3,55-79.1,141.5-81.6,197.3
		c-0.2,3.8,3.3,8,7.5,8H139L139.3,390"/>
	<path fill="#676767" d="M214.8,375.9c2.4-81.5,16.2-199.1,98.3-232.6l3.7-1.2c-4.8-1.8-9.5-3.1-14.4-4.1c-29.5,6.1-57,26-80.6,53.3
		c0,0,0,0,0-0.1c-0.1,0.2-0.3,0.3-0.4,0.5c-0.2,0.3-0.5,0.6-0.7,0.8c0,0-0.1,0.1-0.1,0.1C171.2,250.1,138.9,342.1,139,398l73.9-19.6
		C214,378.1,214.8,377.1,214.8,375.9z"/>
	<path fill="#B2B2B2" d="M494.1,390c-2.5-56.2-34.2-141.8-81.5-196.9c0,0,0-0.3,0-0.4c-0.2-0.3-0.5-0.7-0.7-1
		c-0.1-0.2-0.3-0.4-0.4-0.6c0,0,0,0,0,0c-23.6-27.3-51-47.2-80.5-53.3c-1.2,0.2-2.4,0.5-3.6,0.8c7.3-1.8,14.8-2.8,22.3-2.8
		c36.7,0,70.8,22.2,99.4,55.2c0,0,0,0,0-0.1c0.1,0.2,0.3,0.3,0.4,0.5c0.2,0.3,0.5,0.6,0.7,0.9c0,0,0.1,0.1,0.1,0.1
		c47.3,55,79.1,141.5,81.6,197.3c0.2,3.8-3.3,8-7.5,8h-29.9L494.1,390"/>
	<path fill="#676767" d="M418.6,375.9c-2.4-81.5-16.2-199.1-98.3-232.6l-3.7-1.2c4.8-1.8,9.5-3.1,14.4-4.1c29.5,6.1,57,26,80.6,53.3
		c0,0,0,0,0-0.1c0.1,0.2,0.3,0.3,0.4,0.5c0.2,0.3,0.5,0.6,0.7,0.8c0,0,0.1,0.1,0.1,0.1c49.3,57.4,81.6,149.5,81.6,205.4l-73.9-19.6
		C419.4,378.1,418.7,377.1,418.6,375.9z"/>
</g>
</svg>
