<?xml version="1.0" encoding="utf-8"?>
<!-- Generator: Adobe Illustrator 18.0.0, SVG Export Plug-In . SVG Version: 6.00 Build 0)  -->
<!DOCTYPE svg PUBLIC "-//W3C//DTD SVG 1.1//EN" "http://www.w3.org/Graphics/SVG/1.1/DTD/svg11.dtd">
<svg version="1.1" id="Layer_1" xmlns="http://www.w3.org/2000/svg" xmlns:xlink="http://www.w3.org/1999/xlink" x="0px" y="0px"
	 viewBox="950.8 -149.4 609.8 609.8" enable-background="new 950.8 -149.4 609.8 609.8" xml:space="preserve">
<circle fill="#304A70" cx="1255.7" cy="155.5" r="304.9"/>
<path fill="#FFFFFF" d="M1478.7,273.5c-2.7-58.1-35.7-147.9-84.7-204.8c-0.4,0-0.4-0.4-0.8-0.8c0,0-0.1,0-0.1,0
	c-37.4-52.2-85-91-137.2-91c-51.9,0-99.3,38.5-136.6,89.9c-0.2,0.2-0.4,0.5-0.7,0.7c0,0.4-0.4,0.4-0.4,0.4c-0.4,0.4-0.4,0.8-0.8,0.8
	c-49,56.9-82,146.7-84.7,204.8c-0.4,3.9,3.5,8.2,7.8,8.2h29.2h1.7h0h1.4h1.5l73.6-19.6c1.2,0,2-1.2,2-2.4
	c2.4-84.7,16.9-206.7,102-241.2l3.7-1.1l3.7,1.1c85.1,34.5,99.6,156.5,102,241.2c0,1.2,0.8,2.4,2,2.4l73.6,19.6h1.2h1.8h0h2.3h28.7
	C1475.2,281.7,1479.1,277.4,1478.7,273.5z"/>
</svg>
