<?xml version="1.0" encoding="utf-8"?>
<!-- Generator: Adobe Illustrator 18.0.0, SVG Export Plug-In . SVG Version: 6.00 Build 0)  -->
<!DOCTYPE svg PUBLIC "-//W3C//DTD SVG 1.1//EN" "http://www.w3.org/Graphics/SVG/1.1/DTD/svg11.dtd">
<svg version="1.1" id="Layer_1" xmlns="http://www.w3.org/2000/svg" xmlns:xlink="http://www.w3.org/1999/xlink" x="0px" y="0px"
	 viewBox="16.5 196.8 593.8 593.8" enable-background="new 16.5 196.8 593.8 593.8" xml:space="preserve">
<path fill="#FFFFFF" d="M313.4,196.8c-164,0-296.9,132.9-296.9,296.9s132.9,296.9,296.9,296.9s296.9-132.9,296.9-296.9
	S477.2,196.8,313.4,196.8z M500.3,553.8c-0.2,16.5-0.7,33.1-5,49.3c-11.4,43-43.2,70.4-88.4,75.6c-18.3,2.2-36.8,2.4-55.2,2.5
	c-30.1,0.1-60.2,0.2-90.3-0.2c-19.3-0.3-38.6-0.3-57.5-5.2c-42.8-11.1-70.6-43.4-75.7-88.3c-2.2-18.3-2.5-36.8-2.5-55.2
	c-0.1-32.4,0-64.8,0.4-97.2c0.2-19,0.7-38,6.6-56.3c12.7-39.2,40.1-61.7,80.2-68.9c20.3-3.7,41-3.2,61.6-3.6c13,0.1,26,0.2,38.9,0.2
	c28.5,0,57.1-0.5,85.4,1.6c34,2.6,62.8,15.2,82.5,44.3c11.4,16.9,16.5,36.1,17.7,56.1C502.1,456.8,500.9,505.3,500.3,553.8z"/>
<path fill="#FFFFFF" d="M313.7,407.1c48,0,86.4,38.8,86.3,87.2c0,47.5-39,86-87.1,85.9c-47.9,0-86.1-39-86.1-87.5
	C226.9,445.7,266,407.1,313.7,407.1z"/>
<path fill="#FFFFFF" d="M419.9,359.6c14.1,0,25.5,11.4,25.4,25.7c0,14-11.5,25.3-25.7,25.3c-14.1,0-25.4-11.5-25.4-25.8
	C394.3,370.9,405.9,359.6,419.9,359.6z"/>
</svg>
