<?xml version="1.0" encoding="utf-8"?>
<!-- Generator: Adobe Illustrator 18.0.0, SVG Export Plug-In . SVG Version: 6.00 Build 0)  -->
<!DOCTYPE svg PUBLIC "-//W3C//DTD SVG 1.1//EN" "http://www.w3.org/Graphics/SVG/1.1/DTD/svg11.dtd">
<svg version="1.1" id="Layer_1" xmlns="http://www.w3.org/2000/svg" xmlns:xlink="http://www.w3.org/1999/xlink" x="0px" y="0px"
	 viewBox="0 0 316.1 315.9" enable-background="new 0 0 316.1 315.9" xml:space="preserve">
<path fill="#FEFEFE" d="M158.1,8.3C75.4,8.3,8.4,75.3,8.4,158s67,149.7,149.7,149.7s149.7-67,149.7-149.7S240.7,8.3,158.1,8.3z
	 M242.8,128c-3.1,2.3-4.2,4.9-4.2,8.7c-0.1,50.6-35.7,93.8-85,102.9c-24.5,4.5-48.1,1-70.2-10.9c-1.5-0.8-3.4-1.3-4.7-3.7
	c19.1,1.3,36.2-3.3,51.9-15c-19.7-4.9-29.7-12.7-33.1-26c4.6,0.2,9.1,0.7,14.8-0.8c-17.8-6.4-27.3-17.9-28.4-36.5
	c5.4,1.9,9.9,4.1,15.6,4c-15.9-16-19.6-34.2-10.6-47.8c2.9,2.6,5.9,5.1,8.7,7.9c17.3,16.6,37.9,26.1,61.7,29.1
	c4.1,0.5,6,0.3,5.6-5.1c-1.3-16.2,5.7-28.7,20.2-35.9c14.5-7.3,28.5-5.1,40.9,5.4c2.3,2,4.3,2,6.8,1.4c6.3-1.6,12.1-4.3,18.9-7.5
	c-2.7,8.3-7.4,13.9-14.4,19c7.2,0.3,12.6-2.5,19.2-4.3C252.4,119.1,248.1,124.1,242.8,128z"/>
</svg>
