<?xml version="1.0" encoding="utf-8"?>
<!-- Generator: Adobe Illustrator 18.0.0, SVG Export Plug-In . SVG Version: 6.00 Build 0)  -->
<!DOCTYPE svg PUBLIC "-//W3C//DTD SVG 1.1//EN" "http://www.w3.org/Graphics/SVG/1.1/DTD/svg11.dtd">
<svg version="1.1" id="Layer_1" xmlns="http://www.w3.org/2000/svg" xmlns:xlink="http://www.w3.org/1999/xlink" x="0px" y="0px"
	 viewBox="0 0 316.1 315.9" enable-background="new 0 0 316.1 315.9" xml:space="preserve">
<path fill="#FEFEFE" d="M158.1,8.3C75.4,8.3,8.4,75.3,8.4,158s67,149.7,149.7,149.7s149.7-67,149.7-149.7S240.7,8.3,158.1,8.3z
	 M214.3,194.5c-14.2,13.3-35.9,17.2-51.4,9.7c-3.1-1.5-5.8-3.3-8-5.9c-2.4-2.8-3.8-3.1-4.7,1.1c-1.5,6.8-3.5,13.5-5.1,20.4
	c-3.3,14.4-10.7,26.8-19.3,38.6c-0.9,1.2-1.6,3.3-3.7,2.7c-1.7-0.6-1.4-2.5-1.6-3.9c-0.5-5.6-0.8-11.3-1.2-16.9
	c-1-14.8,3.9-28.7,6.9-42.8c2.5-11.7,5.4-23.4,8.2-35c0.7-3,0.7-5.8-0.3-8.8c-2.7-8.3-2.7-16.7-0.3-25.1c1.4-4.7,3.7-8.9,7.4-12.2
	c5.6-5.1,12.9-6.4,19-3.5c5.8,2.8,9,9.2,8.3,16.8c-0.5,5.2-1.8,10.2-3.3,15.1c-1.9,6.7-3.9,13.4-5.8,20.2c-2,7.2-1.4,14,4.6,19.2
	c6,5.3,13,5.4,20.2,2.9c6.8-2.3,11.7-7,15.4-12.9c10.5-16.5,13.4-34.8,10.6-53.8c-2.5-17.1-15.3-28.5-33.4-32
	c-32.5-6.2-60.7,12.8-65.5,44.3c-1.6,10.6-0.2,20.6,6.6,29.3c2.5,3.2,0.7,15.3-2.4,17.7c-2,1.5-3.8,0.5-5.6-0.4
	c-9.2-5-15.4-12.6-18.2-22.7c-7.3-25.9-0.3-48.2,18.4-66.7c26.9-26.7,76.4-29.3,105.2-5.7c15.2,12.6,23.4,28.8,23.2,48.8
	C238.2,156.6,232,177.9,214.3,194.5z"/>
</svg>
