<?xml version="1.0" encoding="utf-8"?>
<!-- Generator: Adobe Illustrator 18.0.0, SVG Export Plug-In . SVG Version: 6.00 Build 0)  -->
<!DOCTYPE svg PUBLIC "-//W3C//DTD SVG 1.1//EN" "http://www.w3.org/Graphics/SVG/1.1/DTD/svg11.dtd">
<svg version="1.1" id="Layer_1" xmlns="http://www.w3.org/2000/svg" xmlns:xlink="http://www.w3.org/1999/xlink" x="0px" y="0px"
	 viewBox="0 0 316.1 315.9" enable-background="new 0 0 316.1 315.9" xml:space="preserve">
<path fill="#FEFEFE" d="M158.1,8.3C75.4,8.3,8.4,75.3,8.4,158s67,149.7,149.7,149.7s149.7-67,149.7-149.7S240.7,8.3,158.1,8.3z
	 M251.9,200.1c-2.7,16.7-11.3,23-28.2,24c-21.5,1.2-43,1.7-66.2,1.8c-19.7-0.4-41.2-0.3-62.7-1.8c-3.5-0.2-7-0.6-10.4-1.3
	c-12.3-2.4-18.5-10.8-20.3-22.5c-4.2-27.8-4.4-55.8-0.1-83.6c2.7-17.5,11.2-23.9,29-24.9c43.3-2.3,86.6-2.3,129.9,0
	c18,1,26.4,7,29.1,24.7C256.4,144.2,256.4,172.3,251.9,200.1z"/>
<path fill="#FEFEFE" d="M190.2,156c-16.8,8.7-32.7,16.9-48.4,25.1c-2.5,1.3-3.8,1.6-3.7-2c0.1-15.5,0.1-30.9,0.1-46.4
	c0-1.9-0.4-4.1,2.8-2.4C157,138.7,173.2,147.1,190.2,156z"/>
</svg>
