<?xml version="1.0" encoding="utf-8"?>
<!-- Generator: Adobe Illustrator 18.0.0, SVG Export Plug-In . SVG Version: 6.00 Build 0)  -->
<!DOCTYPE svg PUBLIC "-//W3C//DTD SVG 1.1//EN" "http://www.w3.org/Graphics/SVG/1.1/DTD/svg11.dtd">
<svg version="1.1" id="Layer_1" xmlns="http://www.w3.org/2000/svg" xmlns:xlink="http://www.w3.org/1999/xlink" x="0px" y="0px"
	 viewBox="0 0 400 400" enable-background="new 0 0 400 400" xml:space="preserve">
<g>
	<path fill="#314B71" d="M200.4,0C310.8,0.1,400.2,89.9,400,200.6C399.8,311,310.4,400.1,199.8,400C89.3,399.9-0.2,310.1,0,199.5
		C0.2,89.4,90.1-0.1,200.4,0z"/>
	<path fill="#FEFEFE" d="M200,323.5c-27.3,0-54.6,0-82,0c-9.1,0-12.6-3.7-12.7-12.8c0-34.5-0.1-69,0.1-103.5c0-4.4-1.1-6.1-5.5-5.4
		c-1.5,0.2-3,0.1-4.5,0c-8.1-0.8-12.2-9.8-7.4-16.4c1-1.3,2.2-2.5,3.4-3.6c33.2-33.2,66.4-66.4,99.7-99.7c7.4-7.4,12-7.4,19.4,0.1
		c32.9,33.3,65.7,66.7,98.6,100c1.9,1.9,3.8,3.7,4.6,6.4c2,7.2-3.1,13.1-11.3,13.2c-7.6,0.1-7.6,0.1-7.6,7.5c0,33.7,0,67.3,0,101
		c0,9.4-3.6,13.1-12.8,13.2C254.6,323.5,227.3,323.5,200,323.5z"/>
	<path fill="#314B71" d="M296,188.3c-2.9,0.3-5.2,0.2-7.4,0.8c-4.6,1.3-7,5.2-7,11.3c0,22.5,0,45,0,67.5c0,12.5-0.1,25,0.1,37.5
		c0,3.3-0.5,4.7-4.3,4.6c-8.4-0.2-8.4,0.1-8.4-8.4c0-33.6,0-67.3,0-100.9c0-9.1-2.7-11.8-12-11.8c-38,0-76,0-114,0
		c-9,0-11.9,2.9-11.9,12c0,34.6,0,69.3-0.1,103.9c0,1.7,1.1,4.5-1.1,4.8c-3.5,0.6-7.3,1-10.8-0.3c-1.3-0.5-0.5-2.8-0.5-4.2
		c0-34,0-68,0-102c0-11.4-2.6-14.1-13.9-14.7c-0.4-1.7,1.2-2.3,2-3.1c30.3-30.3,60.5-60.6,90.8-90.9c1.9-1.9,3.1-3.4,5.9-0.6
		c30.3,31,60.8,61.8,91.2,92.6C295,186.9,295.2,187.3,296,188.3z"/>
	<path fill="#314B71" d="M200.3,230c17,0,33.9,0.1,50.9-0.1c3.8,0,4.9,1,4.6,4.7c-0.3,3.8-0.2,7.7,0,11.5c0.1,2.5-0.5,3.5-3.3,3.5
		c-34.9-0.1-69.9-0.1-104.8,0c-2.4,0-3.2-0.9-3.1-3.2c0.1-3.8,0.3-7.7,0-11.5c-0.3-3.8,0.7-5.1,4.8-5.1
		C166.3,230.2,183.3,230,200.3,230z"/>
	<path fill="#314B71" d="M199.7,282.2c-17,0-34-0.1-50.9,0.1c-3.1,0-4.5-0.6-4.3-4.1c0.3-3.8,0.3-7.7,0-11.5
		c-0.2-3.1,0.8-3.9,3.9-3.9c17.6,0.1,35.3,0.1,52.9,0.1c16.6,0,33.3,0.1,49.9-0.1c3.3,0,4.9,0.6,4.5,4.3c-0.6,4.9,2.1,11.5-1.1,14.3
		c-2.8,2.4-9.2,0.8-14,0.8C227,282.2,213.4,282.2,199.7,282.2z"/>
	<path fill="#324B71" d="M200.3,216.8c-17,0-34-0.1-51,0.1c-3.5,0-4.9-0.5-4.8-4.5c0.2-10.1,0-10.1,10.3-10.1
		c31.8,0,63.6,0.1,95.5-0.1c4.2,0,5.8,0.7,5.6,5.4c-0.4,9.2-0.1,9.2-9.6,9.2C231,216.8,215.6,216.8,200.3,216.8z"/>
	<path fill="#314B71" d="M199.9,309.9c-17,0-33.9-0.1-50.9,0.1c-3.4,0-4.5-0.7-4.5-4.3c0.2-9.9,0-9.9,9.8-9.9
		c32.3,0,64.5,0.1,96.8-0.1c3.7,0,4.8,0.8,4.7,4.6c-0.2,9.7,0,9.7-9.5,9.7C230.8,309.9,215.3,309.9,199.9,309.9z"/>
</g>
</svg>
