<?xml version="1.0" encoding="utf-8"?>
<!-- Generator: Adobe Illustrator 18.0.0, SVG Export Plug-In . SVG Version: 6.00 Build 0)  -->
<!DOCTYPE svg PUBLIC "-//W3C//DTD SVG 1.1//EN" "http://www.w3.org/Graphics/SVG/1.1/DTD/svg11.dtd">
<svg version="1.1" id="Layer_1" xmlns="http://www.w3.org/2000/svg" xmlns:xlink="http://www.w3.org/1999/xlink" x="0px" y="0px"
	 viewBox="0 0 400 400" enable-background="new 0 0 400 400" xml:space="preserve">
<g>
	<path fill="#314B71" d="M400,200.1c0,110.5-89.7,199.9-200.4,199.8C89.2,399.9,0,310.5,0,200C0,89.5,89.7-0.1,200.2,0
		C310.4,0.1,400,89.9,400,200.1z"/>
	<path fill="#FEFEFE" d="M94.5,215.9c5.8,0,11.7-0.2,17.5,0.1c2.9,0.1,3.8-0.9,3.8-3.7c-0.1-4.3,0.2-8.7,0.2-13
		c0.3-32.7,0.5-65.3,1-98c0.2-17.7,14.7-31.2,32.1-30.4c12.6,0.6,23.4,8.7,27.7,21.6c1.4,4.2,3.2,5.8,7.6,5.5c6-0.4,12-0.2,18-0.1
		c6.8,0.1,11.9,3.1,14.5,9.5c2.6,6.2,1.2,11.7-3.3,16.6c-6.9,7.5-13.7,15-20.7,22.4c-5.6,6-11.4,7.5-17.9,4.9
		c-6.3-2.5-9.6-7.9-9.7-16c-0.1-10.8-0.1-21.7-0.4-32.5c-0.3-11.2-7.9-19-17.9-18.8c-10.1,0.3-17,8.1-17.1,19.4
		c-0.3,35.8-0.6,71.7-1.1,107.5c-0.1,4,1,4.9,4.9,4.9c62-0.1,124-0.1,186-0.1c8.5,0,10.3,1.7,10.3,10.1c0,9.2,0,18.3,0,27.5
		c0,7.7-1.9,9.5-9.8,9.6c-4.2,0-8.3,0.2-12.5-0.1c-2.9-0.2-4.1,0.9-4.8,3.6c-2.7,10.4-5.7,20.9-8.6,31.3c-2,7.2-3.1,8.3-10.3,8
		c-4.1-0.2-5.7,0.8-5.2,5.1c0.4,3.6,0.2,7.3,0,11c-0.2,4.5-2.8,7.3-6.6,7.2c-4.5-0.1-6.5-2.8-6.7-7.1c-0.1-3.8-0.4-7.7,0-11.5
		c0.3-3.9-1.1-4.7-4.7-4.6c-27.5,0.2-55,0.1-82.5,0.1c-11.3,0-22.7,0.1-34-0.1c-3.2-0.1-4.5,0.7-4.2,4.1c0.3,4.1,0.2,8.3,0,12.5
		c-0.1,4.1-2.4,6.6-6.6,6.6c-4.2,0-6.4-2.5-6.5-6.6c-0.2-4.2-0.3-8.3,0-12.5c0.3-3.5-1.1-4.3-4.3-4.1c-3,0.2-6,0-9,0.1
		c-4.3,0.1-6.8-1.8-7.9-6c-2.9-10.8-6.1-21.4-8.8-32.2c-1-3.8-2.6-5.1-6.4-4.8c-4.5,0.4-9,0.2-13.5,0.1c-4.9-0.1-7.2-2.2-7.3-6.9
		c-0.4-11.1,0.2-22.3-0.3-33.5c-0.2-3.9,2.4-6.8,6.9-6.8C82.5,215.9,88.5,215.9,94.5,215.9z"/>
	<path fill="#314B71" d="M200.1,229.1c37,0,74,0.1,111-0.1c4.3,0,6.5,0.7,5.9,5.6c-0.6,4.9,2,11.3-1.1,14.4c-2.9,2.8-9.2,0.7-14,0.8
		c-7,0.1-8.2,1-10.1,7.8c-2.9,10.4-5.9,20.8-8.6,31.3c-0.8,2.9-1.9,4-5,4c-48-0.1-96-0.2-144-0.2c-0.2,0-0.3,0-0.5,0
		c-5.3-0.1-12,2.3-15.5-0.9c-3.4-3.1-3.5-9.7-5-14.8c-1.9-6.9-3.8-13.8-5.6-20.7c-1.2-4.5-3.9-6.7-8.7-6.5c-4.3,0.2-8.7-0.1-13,0.1
		c-2.5,0.1-3.3-0.8-3-3.2c0-0.2,0-0.3,0-0.5c0.1-5.5-1.9-12.6,0.8-16c2.9-3.6,10.3-1.1,15.7-1.1C133.1,229,166.6,229.1,200.1,229.1z
		"/>
</g>
</svg>
