<?xml version="1.0" encoding="utf-8"?>
<!-- Generator: Adobe Illustrator 18.0.0, SVG Export Plug-In . SVG Version: 6.00 Build 0)  -->
<!DOCTYPE svg PUBLIC "-//W3C//DTD SVG 1.1//EN" "http://www.w3.org/Graphics/SVG/1.1/DTD/svg11.dtd">
<svg version="1.1" id="Layer_1" xmlns="http://www.w3.org/2000/svg" xmlns:xlink="http://www.w3.org/1999/xlink" x="0px" y="0px"
	 viewBox="0 0 400 400" enable-background="new 0 0 400 400" xml:space="preserve">
<path fill="#314B71" d="M199.9,0C310.3,0,400.2,89.9,400,200.3C399.8,310.7,310.3,400,200,400C89.3,400-0.2,310.5,0,199.8
	C0.2,89.4,89.6,0,199.9,0z"/>
<path fill="#FEFEFE" d="M105.5,99.4c-4.9,5-8.6,8.9-12.5,12.8c-3.4,3.4-7.3,3.7-10.2,1.1c-3.1-2.9-2.8-6.8,0.8-10.5
	c7.7-7.8,15.4-15.6,23.2-23.4c3.4-3.4,7.1-3.6,10.5-0.2c7.9,7.8,15.8,15.8,23.6,23.7c3.3,3.3,3.5,7.5,0.9,10.2
	c-2.7,2.8-6.8,2.6-10.2-0.7c-4-3.9-7.9-8-11.9-12.1c-1.4,1.8-0.8,3.3-0.9,4.7c0,58.1,0,116.3-0.1,174.4c0,4.7,1.4,5.7,5.8,5.7
	c55.3-0.1,110.6-0.1,165.9-0.1c1.5,0,3,0,5.9,0c-4.4-4.4-8.1-8.1-11.7-11.8c-3.8-3.9-4.5-8-1.7-10.9c3-3.2,6.9-2.7,11.2,1.6
	c7.3,7.3,14.6,14.6,21.9,21.9c4.4,4.4,4.4,7.5,0,11.9c-7.5,7.6-15,15.1-22.6,22.6c-3.5,3.5-7.8,3.8-10.5,0.9
	c-2.6-2.8-2.3-6.8,1.1-10.2c3.8-3.9,7.8-7.6,11.9-11.6c-2.6-1.4-4.6-0.9-6.5-0.9c-57.1,0-114.3,0-171.4,0
	c-11.3,0-12.4-1.1-12.4-12.6c0-59.8,0-119.6,0-179.4C105.5,104.6,105.5,102.7,105.5,99.4z"/>
<path fill="#FEFEFE" d="M208.3,134.7c15,0,30,0,45,0c7.8,0,9.5,1.7,9.6,9.3c0,30,0,59.9,0,89.9c0,7.7-1.7,9.4-9.4,9.4
	c-30,0-59.9,0-89.9,0c-7.4,0-9.2-1.8-9.2-9.1c0-30.1,0-60.3,0-90.4c0-7.3,1.8-9.1,9.1-9.1C178.3,134.6,193.3,134.7,208.3,134.7z"/>
<path fill="#314B71" d="M167.4,188.9c0-12.3,0.1-24.7-0.1-37c-0.1-3.3,1-4.1,4.2-4.1c24.7,0.1,49.3,0.1,74,0c3.3,0,4.1,1,4.1,4.2
	c-0.1,24.7-0.1,49.3,0,74c0,3.3-1,4.1-4.2,4.1c-24.7-0.1-49.3-0.1-74,0c-3.3,0-4.1-1-4.1-4.2C167.5,213.5,167.4,201.2,167.4,188.9z"
	/>
</svg>
