<?xml version="1.0" encoding="utf-8"?>
<!-- Generator: Adobe Illustrator 18.0.0, SVG Export Plug-In . SVG Version: 6.00 Build 0)  -->
<!DOCTYPE svg PUBLIC "-//W3C//DTD SVG 1.1//EN" "http://www.w3.org/Graphics/SVG/1.1/DTD/svg11.dtd">
<svg version="1.1" id="Layer_1" xmlns="http://www.w3.org/2000/svg" xmlns:xlink="http://www.w3.org/1999/xlink" x="0px" y="0px"
	 viewBox="0 0 300 300" enable-background="new 0 0 300 300" xml:space="preserve">
<g>
	<circle fill="#EA7D28" cx="150" cy="150" r="150"/>
	<path fill="#FFFFFF" d="M150,45c-46.4,0-84,37.6-84,84v14c0,7.7,6.3,14,14,14v70c0,15.5,31.3,28,70,28s70-12.5,70-28v-70
		c7.7,0,14-6.3,14-14v-14C234,82.6,196.4,45,150,45z M192,185v7c0,3.9-3.1,7-7,7s-7-3.1-7-7v-7c0-3.9-3.1-7-7-7s-7,3.1-7,7v35
		c0,3.9-3.1,7-7,7s-7-3.1-7-7v-28c0-3.9-3.1-7-7-7s-7,3.1-7,7v7c0,7.7-6.3,14-14,14s-14-6.3-14-14v-14c-7.7,0-14-6.3-14-14v-25.2
		c12.8,6.8,33.1,11.2,56,11.2s43.2-4.4,56-11.2V171C206,178.7,199.7,185,192,185z M150,143c-23.5,0-43.6-5.8-51.9-14
		c8.3-8.2,28.4-14,51.9-14s43.6,5.8,51.9,14C193.6,137.2,173.5,143,150,143z M150,101c-38.6,0-70,12.5-70,28l0,0
		c0-38.6,31.3-70,70-70c38.7,0,70,31.3,70,70C220,113.5,188.7,101,150,101z"/>
</g>
</svg>
