<?xml version="1.0" encoding="utf-8"?>
<!-- Generator: Adobe Illustrator 18.0.0, SVG Export Plug-In . SVG Version: 6.00 Build 0)  -->
<!DOCTYPE svg PUBLIC "-//W3C//DTD SVG 1.1//EN" "http://www.w3.org/Graphics/SVG/1.1/DTD/svg11.dtd">
<svg version="1.1" id="Layer_1" xmlns="http://www.w3.org/2000/svg" xmlns:xlink="http://www.w3.org/1999/xlink" x="0px" y="0px"
	 viewBox="0 0 400 400" enable-background="new 0 0 400 400" xml:space="preserve">
<g>
	<path fill="#314B71" d="M199.8,0C310.2,0,400,89.8,400,200.2c0,110.4-89.8,199.9-200.5,199.8C89.1,399.9-0.1,310.4,0,199.9
		C0.1,89.5,89.6,0,199.8,0z"/>
	<path fill="#FEFEFE" d="M199.8,253.1c-34.7,0-69.3,0.1-104-0.1c-4.8,0-5.8,1.4-5.6,5.8c0.3,9.2,0.1,18.3,0.1,27.5
		c0,5.1-2.6,8.3-6.6,8.3c-4,0-6.6-3.2-6.6-8.3c0-57.5,0-114.9,0-172.4c0-5.4,2.4-8.2,6.6-8.1c4.2,0,6.5,2.8,6.5,8.2
		c0,7.8,0.2,15.7-0.1,23.5c-0.2,4,0.8,5.4,5.1,5.3c15.2-0.3,30.3-0.1,45.5-0.1c14.3,0,23,8.7,23.2,22.9c0.1,3.9-1.8,9.1,0.8,11.5
		c2.6,2.4,7.6,0.7,11.6,0.7c39.3,0.1,78.6,0,118,0c17.6,0,28.5,10.7,28.5,28.2c0.1,26.3,0,52.6,0,79c0,0.8,0,1.7,0,2.5
		c-0.4,4.3-3.2,7.5-6.9,7.1c-4.3-0.4-6.6-3.1-6.6-7.4c-0.1-9.8-0.2-19.7,0.1-29.5c0.1-3.8-1-4.7-4.7-4.7
		C269.7,253.2,234.8,253.1,199.8,253.1z"/>
	<path fill="#314B71" d="M199.7,239.9c-34.8,0-69.6-0.1-104.5,0.1c-4.3,0-5.2-1.2-5.1-5.3c0.3-13.2,0.2-26.3,0-39.5
		c0-3.2,0.7-4.3,4.1-4.3c67,0.1,133.9,0.1,200.9,0.1c9.2,0,14.1,5.1,14.2,14.3c0,10-0.3,20,0,30c0.1,3.8-0.9,4.7-4.7,4.6
		C269.7,239.8,234.7,239.9,199.7,239.9z"/>
	<path fill="#314B71" d="M120.2,177.8c-8.7,0-17.3-0.1-26,0.1c-2.9,0.1-4.2-0.4-4-3.8c0.3-5,0.2-10,0-15c-0.1-2.7,0.9-3.3,3.4-3.3
		c16,0.1,32,0,47.9,0.1c5.7,0,8.6,3,8.8,8.5c0.6,13.4,0.6,13.4-12.7,13.4C131.9,177.8,126,177.8,120.2,177.8z"/>
</g>
</svg>
